<svg xmlns="http://www.w3.org/2000/svg" width="103" height="266" fill="none"><path fill="#C38879" d="M178 270a74 74 0 0 0-6 32.2l-64.7-24.4c.9-1.4 1.9-8.6-3.1-26.2a916 916 0 0 1-13-67.1c-1 .8-1.7 1.6-2 2.2-2 3.5-1 5.3-2.9 9.4-1.8 4.2-11 24.8-24.3 28.4-3.3 1-5.8.8-7.6.2-4-1.5-5-6-4.7-8.7-7.4 6.9-18.6 4-21.3 1.6-2.8-2.5-8-6.2-.9-23.4l1.8-4.1c1.4-3.7 2.7-7.8 3.9-12.1-9.8 4.8-13 7.3-22.8 2-3.4-1.9-4.8-6.2-5-11.2a71.5 71.5 0 0 1 4.6-24.4c2.2-5.5 8.3-25.6 9.4-33.4.7-4.8 4.3-26 10.3-42-15 11-26.9-6-21-16.6 5.7-10.6 8.9-18.1 19.7-32.8C35.7 14.3 53.5 4 66.2 3c13.1-1 31.3-6 33.3 23.5-.1 10.6.3 34 2.5 43.7l4 1.6c29.4 11.5 37 19 33 29 7.4 1.2 18 4.5 20.5 24.2 3.8 2 6.1 5 8 7.5 3.2 4.5 5.4 9.9 6.1 21.2.6 9 3.7 33.3 5.2 44.3 7.6 51.5 5.6 54.1-.9 72Z"/><path stroke="#997066" stroke-width="2" d="M159.5 124.9c3.8 2 6.1 5 8 7.5 3.2 4.5 5.4 9.9 6.1 21.2.6 9 3.7 33.3 5.2 44.3 7.6 51.5 5.6 54.1-.9 72a74 74 0 0 0-5.8 32.3l-64.8-24.4c.9-1.4 1.9-8.6-3.1-26.2-4-14.1-10.4-50.6-13-67.1m68.3-59.6a20.5 20.5 0 0 0-13.4-1.5c-11.2 2-34.8 4-49.9 5.4m63.3-4c-2.5-19.6-13-22.9-20.5-24.1m0 0-4.5-.8a722 722 0 0 0-63.1-8.1c-25.1-2-23.9 16.2-26.2 24.9-2 7.3-5.7 38-12 61.3M139 100.7c4-10-3.6-17.5-33-29l-4-1.6M33.2 178a137.2 137.2 0 0 1-5.7 16.2m5.7-16.2c-9.8 4.8-13 7.3-22.8 2-3.4-1.9-4.8-6.2-5-11.2M29.7 69c4-10.6 9-18.7 15-17.9l3.8.6M29.7 69.1c-6 15.8-9.6 37.1-10.3 41.9-1.1 7.8-7.2 28-9.4 33.4-1.5 3.6-5 15.2-4.6 24.4M29.7 69c-15 10.9-26.9-6.2-21-16.7 5.7-10.6 8.9-18.1 19.7-32.8C35.7 14.3 53.5 4 66.2 3c13.1-1 31.3-6 33.3 23.5-.1 10.6.3 34 2.5 43.7m0 0C89.7 65.2 75 59 61.2 55m21.3-23.6c-5 6.8-14.4 16.6-21.3 16.4m-12.7 4.1c2.2-.8 6.5-4 6-10 1.6 4.1 4 5.8 6.7 5.9m-12.7 4.1c4 .7 8.3 1.8 12.7 3.1m0-7.2c-.7.7-1.7 3 0 7.2m29.5 64c1.5 1 4.6 4.4 5.5 9.9m0 0-6.2.5c-13.8 1.1-21.2 2.4-22.4 10.2-1.2 7.9-3.3 17.8-4.7 31.4-1 9.1-2.2 20-5 29.5M49.6 216c1-1 1.9-2 2.7-3.2 2.3-3.5 4-7.8 5.4-12.4m-8 15.6c-7.5 6.9-18.7 4-21.4 1.6-2.8-2.5-8-6.2-.9-23.4M49.7 216c-.2 2.8.6 7.2 4.7 8.7m99.2-43.4c-24 6.5-40.6-1.9-49.4-10.3m0 0a33.2 33.2 0 0 1-5.6-7c3.9 10.8-3.5 16.7-7.5 20.5m13.1-13.5c6 .4 20.5-2.2 30.4-15m-13 38.5c7 7.8 7.4 9.5 15.1 13.9a68 68 0 0 1 11.4 7m-57-31-2 2.3c-1.9 3.5-1 5.3-2.8 9.4-1.8 4.2-11 24.8-24.3 28.4-3.3 1-5.8.8-7.6.2m0 0c3.2-5 8.3-17 3.4-24.3m-18.6 12.2c2.5-9.8 3.6-27.1-11.7-18.4m-22-25.4c1.3-5.2 4.7-15.8 7-17.2 2.9-1.7 16.5 7.3 16.3 13.1-.3 5.8 0 7.7-2.1 10M9.4 56.6a39 39 0 0 1 7.5-11.5c2.9-1.8 11.5 5.6 11.1 8.9-.4 3.2 2.1 6-5.4 13M129.8 216c2 4.3 7.4 13.2 12.7 14.3"/></svg>
