<svg xmlns="http://www.w3.org/2000/svg" width="107" height="237" fill="none"><path fill="#C38879" d="M-66.1 221.5c8-11.2-7-66.6 9.6-104 4.9-11.7 14.7-37 15.4-44.2.9-9 10-10.4 13.2-11.1 3.1-.7 5-1.2 6-5.5s5.9-12 20.6-12.6c6-.3 14.7-.4 23.9-.2 3-2 15.3-15.5 21.3-26C51.3 4.7 52.7 4 57.8 2.9c5-1.2 15.6 2 20.2 7a116 116 0 0 1 17 29.3c4.3 10.9 10 22.8 8.8 36.3a75 75 0 0 1-.7 5.6c-2 11.2-6.4 19.9-16.3 14a563 563 0 0 1 1.8 22.4 414.6 414.6 0 0 1 0 24.5c-.1 2.4.8 9.7-1.1 15.3-1.7 5-5.5 8.7-14 6.8-9-2-11.4-15.8-11.9-31.6a144 144 0 0 1-2.8 30c-.6 4.6-.9 8.7-1 11.3 0 2-.7 7-3 10.6-2.3 3.8-6.2 6.3-12.8 3.1-9-4.3-10.6-13.5-10-22-.3 2.3-1.4 5.6-4.3 6.5-1.3.5-2.6.7-4 .7a9 9 0 0 1-2.4-.5L-9.6 259l-56.5-37.4Z"/><path stroke="#997066" stroke-width="2" d="M8.7 60.4C28.9 65.7 58 68.9 61.1 88c1.6 9.8 0 28.2.5 44.5M22.6 44c-9.2-.2-18 0-23.9.2-14.7.7-19.7 8.3-20.6 12.6-1 4.3-2.9 4.8-6 5.5-3.1.7-12.3 2.1-13.2 11.1-.7 7.3-10.5 32.5-15.4 44.2-16.6 37.4-1.7 92.8-9.6 104l56.5 37.4 30.9-86.7M22.6 44c3-2 15.3-15.5 21.3-26C51.3 4.7 52.7 4 57.8 2.9c5-1.2 15.6 2 20.2 7a116 116 0 0 1 17 29.3c4.3 10.9 10 22.8 8.8 36.3a75 75 0 0 1-.7 5.6M22.6 44c12.3.1 25.4.7 33.7 1.6M86.8 95c9.9 6 14.4-2.7 16.3-13.9M56.3 45.5l2.2.2c13.3 1.8 22.7 1.5 25.3 22.3 1 7.7 1.8 15.7 2.6 23M56.3 45.5a41.3 41.3 0 0 1-3.9-20.6m9.2 107.6c.5 15.8 2.8 29.6 11.8 31.6 8.6 1.9 12.4-1.8 14-6.8m-25.8-24.8a144 144 0 0 1-2.8 30m-69.7-81 35.8 9c18 4.6 16 15.6 16 25.5s-3.2 27.4-5 32.6c-.6 1.8-2 6-3 10.9m-42.4-47.1C-7.2 117-3.8 126 4 124c1.6-.2 5.4-1.8 7.5-6.7l-1 3.2m21.7 43.9c-.9 8.7.6 18.6 10 23.1 6.5 3.2 10.4.7 12.7-3m-22.7-20.1c0 2-1 6.5-4.4 7.6-1.3.5-2.6.7-4 .7m8.4-8.3.8-5m-72.7-34.9c13.3 4.9 41.2 10.8 49.5-2.5m.8-1.5a22.2 22.2 0 0 0 2.2 18.3c-2.8 7.8-3.1 20.5 1.4 27.3 2.4 3.5 4.8 5.4 7.2 6.1m-10.8-51.7-.8 1.5M-27 111c7.8 8.7 26.2 23.2 36.6 11m11.6 50.2a9 9 0 0 0 2.4.5m35-10.2c-.5 4.6-.8 8.7-.8 11.3 0 2-.8 7-3 10.6m3.9-22C52 165.6 41.6 174.4 47 180c3.6 3.7 7.2 4.7 7.8 4.5m34-46.4c.2-6.2 0-15.9-.2-20.5-.2-3.8-1-14.1-2.2-26.5m2.5 47-.2 4c-.2 2.4.7 9.7-1.2 15.3m1.4-19.3c-7.1 3.7-20.5 12-17.4 15 3.2 2.9 12 4 16 4.3m-54.6 2.2c-3.9 2.3-11.2 8-9.2 13.2M103 81c-.9-3.2-2.9-9.6-4.3-9.6-1.7 0-11.3 6-11.9 7.5-.5 1.5-.8 9.6-.5 12M-37.1 160c13.5-.5 26.4-2.8 30.7-9.7m-21.5-3.4c4.7-.1 15.5-1.1 21.3-4.3"/></svg>
