<svg width="42" height="42" viewBox="0 0 42 42" fill="none" xmlns="http://www.w3.org/2000/svg">
<g clip-path="url(#clip0_55_293)">
<path d="M42 20.9996C42 9.40163 32.598 -0.00038147 21 -0.00038147C9.40201 -0.00038147 0 9.40163 0 20.9996C0 31.4813 7.6794 40.1691 17.7188 41.7445V27.0699H12.3867V20.9996H17.7188V16.3731C17.7188 11.1099 20.8539 8.20274 25.6508 8.20274C27.9483 8.20274 30.3516 8.6129 30.3516 8.6129V13.7809H27.7035C25.0948 13.7809 24.2812 15.3996 24.2812 17.0604V20.9996H30.1055L29.1744 27.0699H24.2812V41.7445C34.3206 40.1691 42 31.4813 42 20.9996Z" fill="currentColor"/>
</g>
<defs>
<clipPath id="clip0_55_293">
<rect width="42" height="42" fill="white"/>
</clipPath>
</defs>
</svg>
