<svg width="42" height="42" viewBox="0 0 42 42" fill="none" xmlns="http://www.w3.org/2000/svg">
<g clip-path="url(#clip0_55_294)">
<path d="M29.75 3.5H12.25C7.41751 3.5 3.5 7.41751 3.5 12.25V29.75C3.5 34.5825 7.41751 38.5 12.25 38.5H29.75C34.5825 38.5 38.5 34.5825 38.5 29.75V12.25C38.5 7.41751 34.5825 3.5 29.75 3.5Z" stroke="#321D64" stroke-width="3.5" stroke-linecap="round" stroke-linejoin="round"/>
<path d="M27.9995 19.8972C28.2155 21.3536 27.9667 22.8411 27.2886 24.1479C26.6104 25.4548 25.5375 26.5146 24.2223 27.1766C22.9072 27.8386 21.4168 28.069 19.9631 27.8351C18.5095 27.6011 17.1666 26.9148 16.1255 25.8737C15.0843 24.8326 14.398 23.4897 14.1641 22.036C13.9302 20.5824 14.1606 19.092 14.8226 17.7768C15.4845 16.4617 16.5443 15.3887 17.8512 14.7106C19.1581 14.0325 20.6456 13.7837 22.102 13.9997C23.5876 14.22 24.963 14.9122 26.025 15.9742C27.0869 17.0362 27.7792 18.4116 27.9995 19.8972Z" stroke="#321D64" stroke-width="3.5" stroke-linecap="round" stroke-linejoin="round"/>
</g>
<defs>
<clipPath id="clip0_55_294">
<rect width="42" height="42" fill="white"/>
</clipPath>
</defs>
</svg>
