<svg width="42" height="42" viewBox="0 0 42 42" fill="none" xmlns="http://www.w3.org/2000/svg">
<path d="M32.0833 2H9.91667C5.54508 2 2 5.54508 2 9.91667V32.0833C2 36.4549 5.54508 40 9.91667 40H32.0833C36.4565 40 40 36.4549 40 32.0833V9.91667C40 5.54508 36.4565 2 32.0833 2ZM14.6667 32.0833H9.91667V14.6667H14.6667V32.0833ZM12.2917 12.659C10.7622 12.659 9.52083 11.4082 9.52083 9.866C9.52083 8.32383 10.7622 7.073 12.2917 7.073C13.8212 7.073 15.0625 8.32383 15.0625 9.866C15.0625 11.4082 13.8228 12.659 12.2917 12.659ZM33.6667 32.0833H28.9167V23.2103C28.9167 17.8777 22.5833 18.2814 22.5833 23.2103V32.0833H17.8333V14.6667H22.5833V17.4613C24.7937 13.3668 33.6667 13.0643 33.6667 21.3816V32.0833Z" fill="#321D64"/>
</svg>
