<svg width="42" height="42" viewBox="0 0 42 42" fill="none" xmlns="http://www.w3.org/2000/svg">
<g clip-path="url(#clip0_55_297)">
<path fill-rule="evenodd" clip-rule="evenodd" d="M21 0C9.4045 0 0 9.401 0 21C0 32.5972 9.4045 42 21 42C32.5972 42 42 32.5972 42 21C42 9.401 32.5972 0 21 0ZM26.642 31.2743C26.971 31.507 27.3945 31.5647 27.7725 31.423C28.1488 31.2795 28.427 30.9557 28.511 30.5638C29.3983 26.3953 31.5507 15.8427 32.3575 12.0522C32.4188 11.7653 32.3173 11.4677 32.0933 11.277C31.8675 11.0862 31.556 11.032 31.2795 11.1335C26.999 12.719 13.8162 17.6645 8.428 19.6577C8.08675 19.7855 7.8645 20.1127 7.875 20.475C7.88725 20.8355 8.1305 21.1488 8.4805 21.2537C10.8973 21.9765 14.0682 22.9827 14.0682 22.9827C14.0682 22.9827 15.5505 27.4592 16.3223 29.7342C16.4202 30.0212 16.6442 30.2452 16.9382 30.3223C17.234 30.3993 17.5472 30.3187 17.7677 30.1105C19.0085 28.9397 20.9265 27.1285 20.9265 27.1285C20.9265 27.1285 24.5735 29.8008 26.642 31.2743ZM15.4017 22.4158L17.1168 28.07L17.4982 24.4895C17.4982 24.4895 24.1185 18.5168 27.895 15.113C28.0052 15.0132 28.0192 14.8453 27.9282 14.728C27.8372 14.6108 27.6693 14.5827 27.545 14.6632C23.17 17.4562 15.4017 22.4158 15.4017 22.4158Z" fill="currentColor"/>
</g>
<defs>
<clipPath id="clip0_55_297">
<rect width="42" height="42" fill="white"/>
</clipPath>
</defs>
</svg>
