<svg width="42" height="42" viewBox="0 0 42 42" fill="none" xmlns="http://www.w3.org/2000/svg">
<g clip-path="url(#clip0_55_292)">
<path d="M13.2088 38.4733C29.059 38.4733 37.7263 25.0296 37.7263 13.3721C37.7263 12.9903 37.7187 12.6102 37.7019 12.2318C39.3845 10.9865 40.8469 9.43242 42.0003 7.66338C40.4563 8.36601 38.7948 8.83902 37.0518 9.0523C38.8309 7.96009 40.1968 6.23232 40.8411 4.17259C39.1762 5.18311 37.3323 5.91756 35.3692 6.31402C33.7967 4.59916 31.5581 3.52673 29.0792 3.52673C24.3205 3.52673 20.4615 7.47762 20.4615 12.3479C20.4615 13.0402 20.5371 13.7136 20.6849 14.3594C13.523 13.9905 7.17247 10.4799 2.92284 5.14183C2.18278 6.44561 1.75606 7.96009 1.75606 9.57604C1.75606 12.6368 3.27732 15.339 5.59072 16.9197C4.17698 16.875 2.84892 16.4776 1.68802 15.8163C1.68675 15.8533 1.68675 15.8894 1.68675 15.9289C1.68675 20.2015 4.65704 23.7688 8.60006 24.5772C7.87597 24.7793 7.11408 24.8877 6.32783 24.8877C5.77342 24.8877 5.23328 24.8318 4.70828 24.7286C5.80533 28.234 8.98647 30.7848 12.7581 30.8561C9.80884 33.2229 6.09346 34.6325 2.05552 34.6325C1.36082 34.6325 0.674531 34.592 0 34.5103C3.81366 37.013 8.34218 38.4733 13.2092 38.4733" fill="currentColor"/>
</g>
<defs>
<clipPath id="clip0_55_292">
<rect width="42" height="42" fill="white"/>
</clipPath>
</defs>
</svg>
