<svg width="42" height="42" viewBox="0 0 42 42" fill="none" xmlns="http://www.w3.org/2000/svg">
<path d="M2.08984 40L4.76093 30.2419C3.11268 27.3856 2.24659 24.1477 2.24818 20.8274C2.25293 10.4471 10.7 2 21.0788 2C26.1153 2.00158 30.8432 3.96333 34.3993 7.52267C37.9539 11.082 39.9109 15.813 39.9093 20.8448C39.9046 31.2268 31.4575 39.6738 21.0788 39.6738C17.9279 39.6723 14.823 38.8822 12.0728 37.3812L2.08984 40ZM12.5351 33.9723C15.1888 35.5477 17.7221 36.4913 21.0724 36.4929C29.6984 36.4929 36.7253 29.4724 36.73 20.8417C36.7332 12.1935 29.7396 5.1825 21.0851 5.17933C12.4528 5.17933 5.43068 12.1998 5.42751 20.829C5.42593 24.3519 6.45826 26.9897 8.19201 29.7495L6.61026 35.5255L12.5351 33.9723ZM30.5645 25.3209C30.4473 25.1246 30.1338 25.0074 29.662 24.7715C29.1918 24.5356 26.8785 23.3972 26.4463 23.2404C26.0156 23.0837 25.7021 23.0045 25.387 23.4763C25.0735 23.9466 24.171 25.0074 23.8971 25.3209C23.6232 25.6344 23.3477 25.674 22.8774 25.4381C22.4072 25.2022 20.8903 24.7066 19.0933 23.1027C17.6952 21.855 16.7499 20.3144 16.476 19.8426C16.2021 19.3723 16.4475 19.1174 16.6818 18.8831C16.894 18.6725 17.1521 18.3337 17.388 18.0582C17.6271 17.7858 17.7047 17.5895 17.863 17.2744C18.0198 16.9609 17.9422 16.6854 17.8234 16.4495C17.7047 16.2152 16.7642 13.8988 16.3731 12.9567C15.9899 12.0399 15.602 12.1634 15.3138 12.1492L14.4113 12.1333C14.0978 12.1333 13.588 12.2505 13.1573 12.7223C12.7267 13.1942 11.5107 14.331 11.5107 16.6474C11.5107 18.9638 13.1969 21.2011 13.4313 21.5146C13.6672 21.8281 16.7483 26.5813 21.4683 28.619C22.5908 29.1035 23.468 29.3932 24.1504 29.6102C25.2778 29.968 26.3038 29.9173 27.1144 29.797C28.0185 29.6624 29.8979 28.6586 30.2906 27.5597C30.6833 26.4593 30.6833 25.5173 30.5645 25.3209Z" fill="currentColor"/>
</svg>
