<svg width="24" height="24" viewBox="0 0 24 24" fill="none" xmlns="http://www.w3.org/2000/svg" aria-hidden="true">
<path d="M4.57355 16.9889C2.80555 17.6359 0.85455 16.7139 0.20855 14.9289C-0.43845 13.1439 0.47055 11.1719 2.23555 10.5249L5.47755 9.33793L7.81555 15.8019L4.57355 16.9889ZM10.8555 20.1609C10.4185 20.0099 10.0415 19.7309 9.76655 19.3609L8.13155 17.1589L4.83055 18.3679L7.43255 21.7209C7.72455 22.0969 8.22255 22.2409 8.66955 22.0769L10.8855 21.2669C11.1145 21.1829 11.2676 20.9599 11.2666 20.7139C11.2646 20.4679 11.1105 20.2499 10.8776 20.1689L10.8555 20.1609ZM6.76555 8.86693L9.10355 15.3309C11.2585 14.9139 14.1805 14.9299 17.9995 15.7319L13.3245 2.80493C10.8485 5.96993 8.66155 7.80893 6.76555 8.86693ZM17.5606 5.76493C18.4166 6.17593 19.1166 6.91393 19.4536 7.88193C19.7926 8.84893 19.7076 9.86193 19.2966 10.7179L20.7036 11.3959C21.2885 10.1799 21.4116 8.73993 20.9305 7.36593C20.4495 5.99093 19.4566 4.94193 18.2416 4.35693L17.5606 5.76493ZM18.7486 3.29993C20.2346 4.01493 21.4466 5.29793 22.0345 6.97793C22.6225 8.65793 22.4725 10.4189 21.7575 11.9049L23.2006 12.6009C24.0935 10.7439 24.2796 8.54593 23.5466 6.44793C22.8116 4.35093 21.2995 2.74993 19.4445 1.85693L18.7486 3.29993Z" fill="currentColor"/>
</svg>
