<svg xmlns="http://www.w3.org/2000/svg" width="25" height="24" fill="none"><path fill="currentColor" fill-rule="evenodd" d="M23.04 12A10.27 10.27 0 1 1 2.5 12a10.27 10.27 0 0 1 20.54 0Zm-11.48 1.85V14h1.81v-.16c0-.32.05-.58.12-.8.08-.2.2-.4.36-.56.17-.16.37-.32.63-.47.3-.18.56-.38.78-.6a2.43 2.43 0 0 0 .7-1.76 2.43 2.43 0 0 0-1.57-2.34A4.23 4.23 0 0 0 12.7 7c-.58 0-1.1.1-1.58.31-.48.2-.87.52-1.16.94-.3.41-.44.94-.46 1.58h1.96c0-.26.07-.48.19-.66.12-.18.27-.31.45-.4a1.3 1.3 0 0 1 1.18 0 1.05 1.05 0 0 1 .58.96c0 .2-.04.4-.14.56-.09.17-.21.32-.37.46s-.33.27-.53.4c-.27.16-.5.35-.68.55-.2.2-.34.48-.43.8-.1.34-.15.79-.15 1.35Zm.13 2.9c.22.22.5.33.82.33.2 0 .39-.05.56-.16.17-.1.31-.24.42-.41.1-.18.16-.37.17-.58 0-.32-.12-.59-.35-.8-.23-.23-.5-.34-.8-.34-.32 0-.6.1-.82.33-.23.22-.34.5-.33.8 0 .32.1.6.33.82Z" clip-rule="evenodd"/></svg>
